{
    "asset" : {
        "generator" : "Khronos glTF Blender I/O v1.8.19",
        "version" : "2.0"
    },
    "scene" : 0,
    "scenes" : [
        {
            "name" : "Scene",
            "nodes" : [
                0,
                1,
                2
            ]
        }
    ],
    "nodes" : [
        {
            "mesh" : 0,
            "name" : "Torus.003"
        },
        {
            "mesh" : 1,
            "name" : "Icing"
        },
        {
            "mesh" : 2,
            "name" : "Plane"
        }
    ],
    "materials" : [
        {
            "doubleSided" : true,
            "name" : "Material.001",
            "pbrMetallicRoughness" : {
                "baseColorFactor" : [
                    0.8000000715255737,
                    0.14018823206424713,
                    0.4367009103298187,
                    1
                ],
                "metallicFactor" : 0,
                "roughnessFactor" : 0.5
            }
        }
    ],
    "meshes" : [
        {
            "name" : "Torus.003",
            "primitives" : [
                {
                    "attributes" : {
                        "POSITION" : 0,
                        "NORMAL" : 1,
                        "TEXCOORD_0" : 2
                    },
                    "indices" : 3
                }
            ]
        },
        {
            "name" : "Torus.004",
            "primitives" : [
                {
                    "attributes" : {
                        "POSITION" : 4,
                        "NORMAL" : 5,
                        "TEXCOORD_0" : 6
                    },
                    "indices" : 7,
                    "material" : 0
                }
            ]
        },
        {
            "name" : "Plane.002",
            "primitives" : [
                {
                    "attributes" : {
                        "POSITION" : 8,
                        "NORMAL" : 9,
                        "TEXCOORD_0" : 10
                    },
                    "indices" : 11
                }
            ]
        }
    ],
    "accessors" : [
        {
            "bufferView" : 0,
            "componentType" : 5126,
            "count" : 697,
            "max" : [
                1.5081250667572021,
                0.6626498699188232,
                1.525088906288147
            ],
            "min" : [
                -1.504174828529358,
                -0.6000000238418579,
                -1.5
            ],
            "type" : "VEC3"
        },
        {
            "bufferView" : 1,
            "componentType" : 5126,
            "count" : 697,
            "type" : "VEC3"
        },
        {
            "bufferView" : 2,
            "componentType" : 5126,
            "count" : 697,
            "type" : "VEC2"
        },
        {
            "bufferView" : 3,
            "componentType" : 5123,
            "count" : 3840,
            "type" : "SCALAR"
        },
        {
            "bufferView" : 4,
            "componentType" : 5126,
            "count" : 840,
            "max" : [
                1.5363844633102417,
                0.815654456615448,
                1.4992694854736328
            ],
            "min" : [
                -1.5521514415740967,
                -0.354418009519577,
                -1.5426042079925537
            ],
            "type" : "VEC3"
        },
        {
            "bufferView" : 5,
            "componentType" : 5126,
            "count" : 840,
            "type" : "VEC3"
        },
        {
            "bufferView" : 6,
            "componentType" : 5126,
            "count" : 840,
            "type" : "VEC2"
        },
        {
            "bufferView" : 7,
            "componentType" : 5123,
            "count" : 4728,
            "type" : "SCALAR"
        },
        {
            "bufferView" : 8,
            "componentType" : 5126,
            "count" : 4,
            "max" : [
                1,
                0,
                1
            ],
            "min" : [
                -1,
                0,
                -1
            ],
            "type" : "VEC3"
        },
        {
            "bufferView" : 9,
            "componentType" : 5126,
            "count" : 4,
            "type" : "VEC3"
        },
        {
            "bufferView" : 10,
            "componentType" : 5126,
            "count" : 4,
            "type" : "VEC2"
        },
        {
            "bufferView" : 11,
            "componentType" : 5123,
            "count" : 6,
            "type" : "SCALAR"
        }
    ],
    "bufferViews" : [
        {
            "buffer" : 0,
            "byteLength" : 8364,
            "byteOffset" : 0
        },
        {
            "buffer" : 0,
            "byteLength" : 8364,
            "byteOffset" : 8364
        },
        {
            "buffer" : 0,
            "byteLength" : 5576,
            "byteOffset" : 16728
        },
        {
            "buffer" : 0,
            "byteLength" : 7680,
            "byteOffset" : 22304
        },
        {
            "buffer" : 0,
            "byteLength" : 10080,
            "byteOffset" : 29984
        },
        {
            "buffer" : 0,
            "byteLength" : 10080,
            "byteOffset" : 40064
        },
        {
            "buffer" : 0,
            "byteLength" : 6720,
            "byteOffset" : 50144
        },
        {
            "buffer" : 0,
            "byteLength" : 9456,
            "byteOffset" : 56864
        },
        {
            "buffer" : 0,
            "byteLength" : 48,
            "byteOffset" : 66320
        },
        {
            "buffer" : 0,
            "byteLength" : 48,
            "byteOffset" : 66368
        },
        {
            "buffer" : 0,
            "byteLength" : 32,
            "byteOffset" : 66416
        },
        {
            "buffer" : 0,
            "byteLength" : 12,
            "byteOffset" : 66448
        }
    ],
    "buffers" : [
        {
            "byteLength" : 66460,
            "uri" : "data:application/octet-stream;base64,"
        }
    ]
}
